<mxfile host="Electron" agent="Mozilla/5.0 (X11; Linux x86_64) AppleWebKit/537.36 (KHTML, like Gecko) draw.io/24.7.5 Chrome/126.0.6478.183 Electron/31.3.0 Safari/537.36" version="24.7.5">
  <diagram name="Page-1" id="D5MxORdLZJmm1Y0uXRn0">
    <mxGraphModel dx="3313" dy="2237" grid="1" gridSize="5" guides="1" tooltips="1" connect="0" arrows="1" fold="1" page="0" pageScale="1" pageWidth="353" pageHeight="250" math="0" shadow="0">
      <root>
        <mxCell id="0" />
        <mxCell id="1" parent="0" />
        <mxCell id="49WQ3xkFsMrKM3J29gn0-1" value="" style="verticalLabelPosition=bottom;shadow=0;dashed=0;align=center;html=1;verticalAlign=top;shape=mxgraph.electrical.logic_gates.logic_gate;operation=and;negating=1;negSize=0.15;" parent="1" vertex="1">
          <mxGeometry x="1806" y="700" width="70" height="40" as="geometry" />
        </mxCell>
        <mxCell id="49WQ3xkFsMrKM3J29gn0-2" value="" style="verticalLabelPosition=bottom;shadow=0;dashed=0;align=center;html=1;verticalAlign=top;shape=mxgraph.electrical.logic_gates.logic_gate;operation=and;" parent="1" vertex="1">
          <mxGeometry x="1805" y="860" width="70" height="40" as="geometry" />
        </mxCell>
        <mxCell id="49WQ3xkFsMrKM3J29gn0-3" value="" style="endArrow=none;html=1;rounded=0;exitX=0.055;exitY=0.556;exitDx=0;exitDy=0;exitPerimeter=0;" parent="1" source="49WQ3xkFsMrKM3J29gn0-24" edge="1">
          <mxGeometry width="50" height="50" relative="1" as="geometry">
            <mxPoint x="1839.5" y="600" as="sourcePoint" />
            <mxPoint x="1720" y="600" as="targetPoint" />
            <Array as="points">
              <mxPoint x="1719.5" y="600" />
            </Array>
          </mxGeometry>
        </mxCell>
        <mxCell id="49WQ3xkFsMrKM3J29gn0-4" value="" style="endArrow=none;html=1;rounded=0;" parent="1" edge="1">
          <mxGeometry width="50" height="50" relative="1" as="geometry">
            <mxPoint x="1719.5" y="880" as="sourcePoint" />
            <mxPoint x="1719.5" y="600" as="targetPoint" />
          </mxGeometry>
        </mxCell>
        <mxCell id="49WQ3xkFsMrKM3J29gn0-9" value="" style="endArrow=none;html=1;rounded=0;entryX=0;entryY=0.25;entryDx=0;entryDy=0;entryPerimeter=0;" parent="1" target="49WQ3xkFsMrKM3J29gn0-1" edge="1">
          <mxGeometry width="50" height="50" relative="1" as="geometry">
            <mxPoint x="1801" y="730" as="sourcePoint" />
            <mxPoint x="1831" y="780" as="targetPoint" />
            <Array as="points">
              <mxPoint x="1801" y="710" />
            </Array>
          </mxGeometry>
        </mxCell>
        <mxCell id="49WQ3xkFsMrKM3J29gn0-10" value="" style="endArrow=none;html=1;rounded=0;entryX=0;entryY=0.75;entryDx=0;entryDy=0;entryPerimeter=0;" parent="1" target="49WQ3xkFsMrKM3J29gn0-1" edge="1">
          <mxGeometry width="50" height="50" relative="1" as="geometry">
            <mxPoint x="1801" y="730" as="sourcePoint" />
            <mxPoint x="1831" y="780" as="targetPoint" />
            <Array as="points" />
          </mxGeometry>
        </mxCell>
        <mxCell id="49WQ3xkFsMrKM3J29gn0-13" value="" style="endArrow=none;html=1;rounded=0;entryX=0;entryY=0.25;entryDx=0;entryDy=0;entryPerimeter=0;" parent="1" target="49WQ3xkFsMrKM3J29gn0-2" edge="1">
          <mxGeometry width="50" height="50" relative="1" as="geometry">
            <mxPoint x="1800" y="890" as="sourcePoint" />
            <mxPoint x="1820" y="860" as="targetPoint" />
            <Array as="points">
              <mxPoint x="1800" y="870" />
            </Array>
          </mxGeometry>
        </mxCell>
        <mxCell id="49WQ3xkFsMrKM3J29gn0-14" value="" style="endArrow=none;html=1;rounded=0;entryX=0;entryY=0.75;entryDx=0;entryDy=0;entryPerimeter=0;" parent="1" target="49WQ3xkFsMrKM3J29gn0-2" edge="1">
          <mxGeometry width="50" height="50" relative="1" as="geometry">
            <mxPoint x="1800" y="880" as="sourcePoint" />
            <mxPoint x="1820" y="888" as="targetPoint" />
            <Array as="points">
              <mxPoint x="1800" y="890" />
            </Array>
          </mxGeometry>
        </mxCell>
        <mxCell id="49WQ3xkFsMrKM3J29gn0-15" value="" style="endArrow=classic;html=1;rounded=0;" parent="1" edge="1">
          <mxGeometry width="50" height="50" relative="1" as="geometry">
            <mxPoint x="1719.5" y="880" as="sourcePoint" />
            <mxPoint x="1799.5" y="880" as="targetPoint" />
          </mxGeometry>
        </mxCell>
        <mxCell id="49WQ3xkFsMrKM3J29gn0-16" value="" style="endArrow=classic;html=1;rounded=0;exitX=0.292;exitY=0.078;exitDx=0;exitDy=0;exitPerimeter=0;" parent="1" edge="1">
          <mxGeometry width="50" height="50" relative="1" as="geometry">
            <mxPoint x="1728.94" y="719.8" as="sourcePoint" />
            <mxPoint x="1800.5" y="720" as="targetPoint" />
            <Array as="points" />
          </mxGeometry>
        </mxCell>
        <mxCell id="49WQ3xkFsMrKM3J29gn0-22" value="Low" style="text;html=1;align=center;verticalAlign=middle;resizable=0;points=[];autosize=1;strokeColor=none;fillColor=none;" parent="1" vertex="1">
          <mxGeometry x="1876" y="705" width="50" height="30" as="geometry" />
        </mxCell>
        <mxCell id="49WQ3xkFsMrKM3J29gn0-23" value="High" style="text;html=1;align=center;verticalAlign=middle;resizable=0;points=[];autosize=1;strokeColor=none;fillColor=none;" parent="1" vertex="1">
          <mxGeometry x="1876" y="865" width="50" height="30" as="geometry" />
        </mxCell>
        <mxCell id="49WQ3xkFsMrKM3J29gn0-24" value="Counter" style="text;html=1;align=center;verticalAlign=middle;resizable=0;points=[];autosize=1;strokeColor=none;fillColor=none;" parent="1" vertex="1">
          <mxGeometry x="1859.5" y="584" width="70" height="30" as="geometry" />
        </mxCell>
        <mxCell id="49WQ3xkFsMrKM3J29gn0-25" value="" style="endArrow=none;html=1;rounded=0;exitX=0.962;exitY=0.5;exitDx=0;exitDy=0;exitPerimeter=0;" parent="1" source="49WQ3xkFsMrKM3J29gn0-1" edge="1">
          <mxGeometry width="50" height="50" relative="1" as="geometry">
            <mxPoint x="1861" y="760" as="sourcePoint" />
            <mxPoint x="1880" y="720" as="targetPoint" />
          </mxGeometry>
        </mxCell>
        <mxCell id="49WQ3xkFsMrKM3J29gn0-26" value="" style="endArrow=none;html=1;rounded=0;exitX=0;exitY=0.5;exitDx=0;exitDy=0;exitPerimeter=0;" parent="1" edge="1">
          <mxGeometry width="50" height="50" relative="1" as="geometry">
            <mxPoint x="1875" y="880" as="sourcePoint" />
            <mxPoint x="1880" y="880" as="targetPoint" />
          </mxGeometry>
        </mxCell>
        <mxCell id="49WQ3xkFsMrKM3J29gn0-28" value="" style="endArrow=none;html=1;rounded=0;jumpSize=1;endSize=1;startSize=1;strokeWidth=1;fontSize=1;" parent="1" edge="1">
          <mxGeometry width="50" height="50" relative="1" as="geometry">
            <mxPoint x="1752.5" y="610" as="sourcePoint" />
            <mxPoint x="1772.5" y="590" as="targetPoint" />
          </mxGeometry>
        </mxCell>
        <mxCell id="49WQ3xkFsMrKM3J29gn0-30" value="5" style="text;html=1;align=center;verticalAlign=middle;resizable=0;points=[];autosize=1;strokeColor=none;fillColor=none;fontSize=9;" parent="1" vertex="1">
          <mxGeometry x="1742.5" y="574" width="40" height="20" as="geometry" />
        </mxCell>
        <mxCell id="49WQ3xkFsMrKM3J29gn0-31" value="" style="endArrow=none;html=1;rounded=0;jumpSize=1;endSize=1;startSize=1;strokeWidth=1;fontSize=1;" parent="1" edge="1">
          <mxGeometry width="50" height="50" relative="1" as="geometry">
            <mxPoint x="1428" y="773" as="sourcePoint" />
            <mxPoint x="1448" y="753" as="targetPoint" />
          </mxGeometry>
        </mxCell>
        <mxCell id="49WQ3xkFsMrKM3J29gn0-32" value="5" style="text;html=1;align=center;verticalAlign=middle;resizable=0;points=[];autosize=1;strokeColor=none;fillColor=none;fontSize=9;" parent="1" vertex="1">
          <mxGeometry x="1417" y="740" width="40" height="20" as="geometry" />
        </mxCell>
        <mxCell id="49WQ3xkFsMrKM3J29gn0-34" value="" style="endArrow=none;html=1;rounded=0;jumpSize=1;endSize=1;startSize=1;strokeWidth=1;fontSize=1;" parent="1" edge="1">
          <mxGeometry width="50" height="50" relative="1" as="geometry">
            <mxPoint x="1747.5" y="890" as="sourcePoint" />
            <mxPoint x="1767.5" y="870" as="targetPoint" />
          </mxGeometry>
        </mxCell>
        <mxCell id="49WQ3xkFsMrKM3J29gn0-35" value="5" style="text;html=1;align=center;verticalAlign=middle;resizable=0;points=[];autosize=1;strokeColor=none;fillColor=none;fontSize=9;" parent="1" vertex="1">
          <mxGeometry x="1737.5" y="857" width="40" height="20" as="geometry" />
        </mxCell>
        <mxCell id="49WQ3xkFsMrKM3J29gn0-36" value="" style="verticalLabelPosition=bottom;shadow=0;dashed=0;align=center;html=1;verticalAlign=top;shape=mxgraph.electrical.logic_gates.logic_gate;operation=or;" parent="1" vertex="1">
          <mxGeometry x="756" y="779" width="70" height="40" as="geometry" />
        </mxCell>
        <mxCell id="49WQ3xkFsMrKM3J29gn0-37" value="" style="verticalLabelPosition=bottom;shadow=0;dashed=0;align=center;html=1;verticalAlign=top;shape=mxgraph.electrical.logic_gates.logic_gate;operation=and;" parent="1" vertex="1">
          <mxGeometry x="656" y="789" width="70" height="40" as="geometry" />
        </mxCell>
        <mxCell id="49WQ3xkFsMrKM3J29gn0-39" value="" style="endArrow=none;html=1;rounded=0;exitX=1;exitY=0.5;exitDx=0;exitDy=0;exitPerimeter=0;entryX=0;entryY=0.75;entryDx=0;entryDy=0;entryPerimeter=0;" parent="1" source="49WQ3xkFsMrKM3J29gn0-37" target="49WQ3xkFsMrKM3J29gn0-36" edge="1">
          <mxGeometry width="50" height="50" relative="1" as="geometry">
            <mxPoint x="926" y="739" as="sourcePoint" />
            <mxPoint x="976" y="689" as="targetPoint" />
            <Array as="points" />
          </mxGeometry>
        </mxCell>
        <mxCell id="49WQ3xkFsMrKM3J29gn0-40" value="" style="endArrow=none;html=1;rounded=0;entryX=0;entryY=0.25;entryDx=0;entryDy=0;entryPerimeter=0;exitX=0;exitY=0.25;exitDx=0;exitDy=0;exitPerimeter=0;" parent="1" source="49WQ3xkFsMrKM3J29gn0-37" target="49WQ3xkFsMrKM3J29gn0-36" edge="1">
          <mxGeometry width="50" height="50" relative="1" as="geometry">
            <mxPoint x="656" y="779" as="sourcePoint" />
            <mxPoint x="756" y="779" as="targetPoint" />
            <Array as="points">
              <mxPoint x="656" y="779" />
              <mxPoint x="756" y="779" />
            </Array>
          </mxGeometry>
        </mxCell>
        <mxCell id="49WQ3xkFsMrKM3J29gn0-43" value="" style="endArrow=none;html=1;rounded=0;" parent="1" edge="1">
          <mxGeometry width="50" height="50" relative="1" as="geometry">
            <mxPoint x="650" y="799" as="sourcePoint" />
            <mxPoint x="656" y="799" as="targetPoint" />
          </mxGeometry>
        </mxCell>
        <mxCell id="49WQ3xkFsMrKM3J29gn0-45" value="Down" style="text;html=1;align=center;verticalAlign=middle;resizable=0;points=[];autosize=1;strokeColor=none;fillColor=none;" parent="1" vertex="1">
          <mxGeometry x="595" y="784" width="50" height="30" as="geometry" />
        </mxCell>
        <mxCell id="49WQ3xkFsMrKM3J29gn0-47" value="" style="endArrow=none;html=1;rounded=0;" parent="1" edge="1">
          <mxGeometry width="50" height="50" relative="1" as="geometry">
            <mxPoint x="650" y="819" as="sourcePoint" />
            <mxPoint x="660" y="819" as="targetPoint" />
          </mxGeometry>
        </mxCell>
        <mxCell id="49WQ3xkFsMrKM3J29gn0-48" value="Up" style="text;html=1;align=center;verticalAlign=middle;resizable=0;points=[];autosize=1;strokeColor=none;fillColor=none;" parent="1" vertex="1">
          <mxGeometry x="601" y="804" width="40" height="30" as="geometry" />
        </mxCell>
        <mxCell id="49WQ3xkFsMrKM3J29gn0-49" value="" style="verticalLabelPosition=bottom;shadow=0;dashed=0;align=center;html=1;verticalAlign=top;shape=mxgraph.electrical.logic_gates.inverter_2" parent="1" vertex="1">
          <mxGeometry x="809" y="741" width="70" height="37" as="geometry" />
        </mxCell>
        <mxCell id="49WQ3xkFsMrKM3J29gn0-50" value="" style="verticalLabelPosition=bottom;shadow=0;dashed=0;align=center;html=1;verticalAlign=top;shape=mxgraph.electrical.logic_gates.logic_gate;operation=and;" parent="1" vertex="1">
          <mxGeometry x="887" y="769" width="70" height="40" as="geometry" />
        </mxCell>
        <mxCell id="49WQ3xkFsMrKM3J29gn0-51" value="" style="verticalLabelPosition=bottom;shadow=0;dashed=0;align=center;html=1;verticalAlign=top;shape=mxgraph.electrical.logic_gates.logic_gate;operation=and;" parent="1" vertex="1">
          <mxGeometry x="887" y="829" width="70" height="40" as="geometry" />
        </mxCell>
        <mxCell id="49WQ3xkFsMrKM3J29gn0-52" value="" style="endArrow=none;html=1;rounded=0;exitX=0;exitY=0.25;exitDx=0;exitDy=0;exitPerimeter=0;" parent="1" source="49WQ3xkFsMrKM3J29gn0-51" edge="1">
          <mxGeometry width="50" height="50" relative="1" as="geometry">
            <mxPoint x="656" y="869" as="sourcePoint" />
            <mxPoint x="656" y="819" as="targetPoint" />
            <Array as="points">
              <mxPoint x="656" y="839" />
            </Array>
          </mxGeometry>
        </mxCell>
        <mxCell id="49WQ3xkFsMrKM3J29gn0-53" value="" style="endArrow=none;html=1;rounded=0;entryX=0;entryY=0.75;entryDx=0;entryDy=0;entryPerimeter=0;exitX=1;exitY=0.5;exitDx=0;exitDy=0;exitPerimeter=0;" parent="1" source="49WQ3xkFsMrKM3J29gn0-36" target="49WQ3xkFsMrKM3J29gn0-50" edge="1">
          <mxGeometry width="50" height="50" relative="1" as="geometry">
            <mxPoint x="840" y="799" as="sourcePoint" />
            <mxPoint x="779" y="829" as="targetPoint" />
          </mxGeometry>
        </mxCell>
        <mxCell id="49WQ3xkFsMrKM3J29gn0-54" value="" style="endArrow=none;html=1;rounded=0;entryX=0;entryY=0.25;entryDx=0;entryDy=0;entryPerimeter=0;exitX=1;exitY=0.5;exitDx=0;exitDy=0;exitPerimeter=0;" parent="1" source="49WQ3xkFsMrKM3J29gn0-49" target="49WQ3xkFsMrKM3J29gn0-50" edge="1">
          <mxGeometry width="50" height="50" relative="1" as="geometry">
            <mxPoint x="729" y="879" as="sourcePoint" />
            <mxPoint x="779" y="829" as="targetPoint" />
            <Array as="points">
              <mxPoint x="879" y="779" />
            </Array>
          </mxGeometry>
        </mxCell>
        <mxCell id="49WQ3xkFsMrKM3J29gn0-55" value="" style="verticalLabelPosition=bottom;shadow=0;dashed=0;align=center;html=1;verticalAlign=top;shape=mxgraph.electrical.logic_gates.inverter_2" parent="1" vertex="1">
          <mxGeometry x="809" y="860.5" width="70" height="37" as="geometry" />
        </mxCell>
        <mxCell id="49WQ3xkFsMrKM3J29gn0-56" value="" style="endArrow=none;html=1;rounded=0;entryX=0;entryY=0.75;entryDx=0;entryDy=0;entryPerimeter=0;exitX=1;exitY=0.5;exitDx=0;exitDy=0;exitPerimeter=0;" parent="1" source="49WQ3xkFsMrKM3J29gn0-55" target="49WQ3xkFsMrKM3J29gn0-51" edge="1">
          <mxGeometry width="50" height="50" relative="1" as="geometry">
            <mxPoint x="729" y="1020" as="sourcePoint" />
            <mxPoint x="889" y="920" as="targetPoint" />
            <Array as="points">
              <mxPoint x="879" y="859" />
            </Array>
          </mxGeometry>
        </mxCell>
        <mxCell id="49WQ3xkFsMrKM3J29gn0-57" value="" style="endArrow=none;html=1;rounded=0;entryX=0;entryY=0.5;entryDx=0;entryDy=0;entryPerimeter=0;" parent="1" edge="1">
          <mxGeometry width="50" height="50" relative="1" as="geometry">
            <mxPoint x="1880" y="940" as="sourcePoint" />
            <mxPoint x="809" y="879" as="targetPoint" />
            <Array as="points">
              <mxPoint x="780" y="940" />
              <mxPoint x="780" y="900" />
              <mxPoint x="780" y="879" />
            </Array>
          </mxGeometry>
        </mxCell>
        <mxCell id="49WQ3xkFsMrKM3J29gn0-58" value="" style="endArrow=none;html=1;rounded=0;entryX=0.013;entryY=0.499;entryDx=0;entryDy=0;entryPerimeter=0;" parent="1" target="49WQ3xkFsMrKM3J29gn0-49" edge="1">
          <mxGeometry width="50" height="50" relative="1" as="geometry">
            <mxPoint x="780.23" y="759.57" as="sourcePoint" />
            <mxPoint x="810" y="759.431" as="targetPoint" />
            <Array as="points" />
          </mxGeometry>
        </mxCell>
        <mxCell id="49WQ3xkFsMrKM3J29gn0-59" value="" style="endArrow=none;html=1;rounded=0;" parent="1" edge="1">
          <mxGeometry width="50" height="50" relative="1" as="geometry">
            <mxPoint x="1880" y="940" as="sourcePoint" />
            <mxPoint x="1879.5" y="880" as="targetPoint" />
          </mxGeometry>
        </mxCell>
        <mxCell id="49WQ3xkFsMrKM3J29gn0-61" value="" style="verticalLabelPosition=bottom;verticalAlign=top;html=1;shape=mxgraph.basic.arc;startAngle=0.5656371603629355;endAngle=0.9308683008029874;rotation=90;" parent="1" vertex="1">
          <mxGeometry x="1707" y="635.5" width="25" height="20" as="geometry" />
        </mxCell>
        <mxCell id="49WQ3xkFsMrKM3J29gn0-62" value="" style="endArrow=none;html=1;rounded=0;exitX=0.282;exitY=0.066;exitDx=0;exitDy=0;exitPerimeter=0;" parent="1" source="49WQ3xkFsMrKM3J29gn0-61" edge="1">
          <mxGeometry width="50" height="50" relative="1" as="geometry">
            <mxPoint x="1729.5" y="640" as="sourcePoint" />
            <mxPoint x="1880" y="720" as="targetPoint" />
            <Array as="points">
              <mxPoint x="1880" y="640" />
            </Array>
          </mxGeometry>
        </mxCell>
        <mxCell id="49WQ3xkFsMrKM3J29gn0-63" value="" style="endArrow=none;html=1;rounded=0;entryX=0.285;entryY=0.946;entryDx=0;entryDy=0;entryPerimeter=0;" parent="1" target="49WQ3xkFsMrKM3J29gn0-61" edge="1">
          <mxGeometry width="50" height="50" relative="1" as="geometry">
            <mxPoint x="780" y="760" as="sourcePoint" />
            <mxPoint x="1030" y="640" as="targetPoint" />
            <Array as="points">
              <mxPoint x="780" y="640" />
            </Array>
          </mxGeometry>
        </mxCell>
        <mxCell id="49WQ3xkFsMrKM3J29gn0-64" value="" style="verticalLabelPosition=bottom;shadow=0;dashed=0;align=center;html=1;verticalAlign=top;shape=mxgraph.electrical.logic_gates.d_type_flip-flop;" parent="1" vertex="1">
          <mxGeometry x="1598" y="700" width="100" height="80" as="geometry" />
        </mxCell>
        <mxCell id="49WQ3xkFsMrKM3J29gn0-65" value="" style="verticalLabelPosition=bottom;verticalAlign=top;html=1;shape=mxgraph.basic.arc;startAngle=0.561415134288199;endAngle=0.9379219212558072;rotation=90;" parent="1" vertex="1">
          <mxGeometry x="1707" y="715" width="25" height="20" as="geometry" />
        </mxCell>
        <mxCell id="49WQ3xkFsMrKM3J29gn0-93" value="" style="endArrow=none;html=1;rounded=0;exitX=0.985;exitY=0.249;exitDx=0;exitDy=0;exitPerimeter=0;" parent="1" edge="1">
          <mxGeometry width="50" height="50" relative="1" as="geometry">
            <mxPoint x="1689" y="719.9599999999999" as="sourcePoint" />
            <mxPoint x="1710.5" y="720.04" as="targetPoint" />
          </mxGeometry>
        </mxCell>
        <mxCell id="49WQ3xkFsMrKM3J29gn0-94" value="" style="verticalLabelPosition=middle;verticalAlign=middle;html=1;shape=trapezoid;perimeter=trapezoidPerimeter;whiteSpace=wrap;size=0.23;arcSize=10;flipV=1;labelPosition=center;align=center;direction=south;" parent="1" vertex="1">
          <mxGeometry x="1478" y="663" width="60" height="112" as="geometry" />
        </mxCell>
        <mxCell id="49WQ3xkFsMrKM3J29gn0-95" value="" style="endArrow=none;html=1;rounded=0;entryX=0;entryY=0.75;entryDx=0;entryDy=0;entryPerimeter=0;" parent="1" edge="1">
          <mxGeometry width="50" height="50" relative="1" as="geometry">
            <mxPoint x="1580" y="840" as="sourcePoint" />
            <mxPoint x="1599" y="760" as="targetPoint" />
            <Array as="points">
              <mxPoint x="1591" y="840" />
              <mxPoint x="1591" y="760" />
            </Array>
          </mxGeometry>
        </mxCell>
        <mxCell id="49WQ3xkFsMrKM3J29gn0-96" value="Clk&lt;div&gt;&lt;br&gt;&lt;/div&gt;" style="text;html=1;align=center;verticalAlign=middle;resizable=0;points=[];autosize=1;strokeColor=none;fillColor=none;" parent="1" vertex="1">
          <mxGeometry x="1539" y="827" width="40" height="40" as="geometry" />
        </mxCell>
        <mxCell id="49WQ3xkFsMrKM3J29gn0-97" value="" style="endArrow=none;html=1;rounded=0;entryX=0;entryY=0.25;entryDx=0;entryDy=0;entryPerimeter=0;exitX=0.5;exitY=0;exitDx=0;exitDy=0;" parent="1" source="49WQ3xkFsMrKM3J29gn0-94" target="49WQ3xkFsMrKM3J29gn0-64" edge="1">
          <mxGeometry width="50" height="50" relative="1" as="geometry">
            <mxPoint x="1440" y="800" as="sourcePoint" />
            <mxPoint x="1490" y="750" as="targetPoint" />
          </mxGeometry>
        </mxCell>
        <mxCell id="49WQ3xkFsMrKM3J29gn0-98" value="" style="endArrow=none;html=1;rounded=0;" parent="1" edge="1">
          <mxGeometry width="50" height="50" relative="1" as="geometry">
            <mxPoint x="1508" y="784" as="sourcePoint" />
            <mxPoint x="1508" y="762" as="targetPoint" />
          </mxGeometry>
        </mxCell>
        <mxCell id="49WQ3xkFsMrKM3J29gn0-99" value="&lt;div&gt;Load&lt;/div&gt;" style="text;html=1;align=center;verticalAlign=middle;resizable=0;points=[];autosize=1;strokeColor=none;fillColor=none;" parent="1" vertex="1">
          <mxGeometry x="1483" y="784" width="50" height="30" as="geometry" />
        </mxCell>
        <mxCell id="49WQ3xkFsMrKM3J29gn0-101" value="" style="endArrow=classic;html=1;rounded=0;entryX=0.848;entryY=1;entryDx=0;entryDy=0;entryPerimeter=0;" parent="1" target="49WQ3xkFsMrKM3J29gn0-94" edge="1">
          <mxGeometry width="50" height="50" relative="1" as="geometry">
            <mxPoint x="1380" y="720" as="sourcePoint" />
            <mxPoint x="1398" y="700" as="targetPoint" />
            <Array as="points">
              <mxPoint x="1420" y="720" />
              <mxPoint x="1420" y="680" />
            </Array>
          </mxGeometry>
        </mxCell>
        <mxCell id="49WQ3xkFsMrKM3J29gn0-102" value="" style="endArrow=classic;html=1;rounded=0;entryX=0.133;entryY=0.997;entryDx=0;entryDy=0;entryPerimeter=0;" parent="1" edge="1">
          <mxGeometry width="50" height="50" relative="1" as="geometry">
            <mxPoint x="1420" y="760" as="sourcePoint" />
            <mxPoint x="1478.1799999999998" y="760.104" as="targetPoint" />
          </mxGeometry>
        </mxCell>
        <mxCell id="49WQ3xkFsMrKM3J29gn0-103" value="&lt;div&gt;0&lt;/div&gt;" style="text;html=1;align=center;verticalAlign=middle;resizable=0;points=[];autosize=1;strokeColor=none;fillColor=none;" parent="1" vertex="1">
          <mxGeometry x="1472" y="667" width="30" height="30" as="geometry" />
        </mxCell>
        <mxCell id="49WQ3xkFsMrKM3J29gn0-104" value="&lt;div&gt;1&lt;/div&gt;" style="text;html=1;align=center;verticalAlign=middle;resizable=0;points=[];autosize=1;strokeColor=none;fillColor=none;" parent="1" vertex="1">
          <mxGeometry x="1471" y="743" width="30" height="30" as="geometry" />
        </mxCell>
        <mxCell id="49WQ3xkFsMrKM3J29gn0-107" value="" style="verticalLabelPosition=middle;verticalAlign=middle;html=1;shape=trapezoid;perimeter=trapezoidPerimeter;whiteSpace=wrap;size=0.23;arcSize=10;flipV=1;labelPosition=center;align=center;direction=south;" parent="1" vertex="1">
          <mxGeometry x="1318" y="664" width="60" height="112" as="geometry" />
        </mxCell>
        <mxCell id="49WQ3xkFsMrKM3J29gn0-108" value="" style="endArrow=none;html=1;rounded=0;exitX=0.5;exitY=0;exitDx=0;exitDy=0;" parent="1" source="49WQ3xkFsMrKM3J29gn0-107" edge="1">
          <mxGeometry width="50" height="50" relative="1" as="geometry">
            <mxPoint x="1220" y="842" as="sourcePoint" />
            <mxPoint x="1380" y="720" as="targetPoint" />
          </mxGeometry>
        </mxCell>
        <mxCell id="49WQ3xkFsMrKM3J29gn0-111" value="" style="endArrow=classic;html=1;rounded=0;entryX=0.133;entryY=0.997;entryDx=0;entryDy=0;entryPerimeter=0;" parent="1" edge="1">
          <mxGeometry width="50" height="50" relative="1" as="geometry">
            <mxPoint x="1260" y="759" as="sourcePoint" />
            <mxPoint x="1318.1799999999998" y="759.104" as="targetPoint" />
          </mxGeometry>
        </mxCell>
        <mxCell id="49WQ3xkFsMrKM3J29gn0-112" value="&lt;div&gt;0&lt;/div&gt;" style="text;html=1;align=center;verticalAlign=middle;resizable=0;points=[];autosize=1;strokeColor=none;fillColor=none;" parent="1" vertex="1">
          <mxGeometry x="1312" y="668" width="30" height="30" as="geometry" />
        </mxCell>
        <mxCell id="49WQ3xkFsMrKM3J29gn0-113" value="&lt;div&gt;1&lt;/div&gt;" style="text;html=1;align=center;verticalAlign=middle;resizable=0;points=[];autosize=1;strokeColor=none;fillColor=none;" parent="1" vertex="1">
          <mxGeometry x="1311" y="744" width="30" height="30" as="geometry" />
        </mxCell>
        <mxCell id="49WQ3xkFsMrKM3J29gn0-121" value="IN" style="text;html=1;align=center;verticalAlign=middle;resizable=0;points=[];autosize=1;strokeColor=none;fillColor=none;" parent="1" vertex="1">
          <mxGeometry x="1380" y="745" width="40" height="30" as="geometry" />
        </mxCell>
        <mxCell id="49WQ3xkFsMrKM3J29gn0-123" style="edgeStyle=orthogonalEdgeStyle;rounded=0;orthogonalLoop=1;jettySize=auto;html=1;exitX=1;exitY=0.5;exitDx=0;exitDy=0;exitPerimeter=0;entryX=0.962;entryY=0.867;entryDx=0;entryDy=0;entryPerimeter=0;" parent="1" source="49WQ3xkFsMrKM3J29gn0-50" target="49WQ3xkFsMrKM3J29gn0-113" edge="1">
          <mxGeometry relative="1" as="geometry">
            <mxPoint x="997" y="789" as="sourcePoint" />
            <mxPoint x="1340.33" y="808.88" as="targetPoint" />
            <Array as="points">
              <mxPoint x="1340" y="789" />
            </Array>
          </mxGeometry>
        </mxCell>
        <mxCell id="49WQ3xkFsMrKM3J29gn0-125" value="" style="endArrow=classic;html=1;rounded=0;entryX=0.267;entryY=0.4;entryDx=0;entryDy=0;entryPerimeter=0;exitX=0.523;exitY=0.013;exitDx=0;exitDy=0;exitPerimeter=0;" parent="1" source="49WQ3xkFsMrKM3J29gn0-126" target="49WQ3xkFsMrKM3J29gn0-112" edge="1">
          <mxGeometry width="50" height="50" relative="1" as="geometry">
            <mxPoint x="1120" y="720" as="sourcePoint" />
            <mxPoint x="1218" y="680" as="targetPoint" />
            <Array as="points">
              <mxPoint x="1220" y="720" />
              <mxPoint x="1260" y="720" />
              <mxPoint x="1260" y="710" />
              <mxPoint x="1260" y="680" />
            </Array>
          </mxGeometry>
        </mxCell>
        <mxCell id="49WQ3xkFsMrKM3J29gn0-126" value="" style="verticalLabelPosition=middle;verticalAlign=middle;html=1;shape=trapezoid;perimeter=trapezoidPerimeter;whiteSpace=wrap;size=0.23;arcSize=10;flipV=1;labelPosition=center;align=center;direction=south;" parent="1" vertex="1">
          <mxGeometry x="1159" y="667" width="60" height="112" as="geometry" />
        </mxCell>
        <mxCell id="49WQ3xkFsMrKM3J29gn0-127" value="" style="endArrow=classic;html=1;rounded=0;entryX=0.848;entryY=1;entryDx=0;entryDy=0;entryPerimeter=0;" parent="1" edge="1">
          <mxGeometry width="50" height="50" relative="1" as="geometry">
            <mxPoint x="1100" y="681" as="sourcePoint" />
            <mxPoint x="1158" y="681.0240000000001" as="targetPoint" />
          </mxGeometry>
        </mxCell>
        <mxCell id="49WQ3xkFsMrKM3J29gn0-128" value="" style="endArrow=classic;html=1;rounded=0;entryX=0.133;entryY=0.997;entryDx=0;entryDy=0;entryPerimeter=0;" parent="1" edge="1">
          <mxGeometry width="50" height="50" relative="1" as="geometry">
            <mxPoint x="1100" y="760" as="sourcePoint" />
            <mxPoint x="1158.1799999999998" y="760.104" as="targetPoint" />
          </mxGeometry>
        </mxCell>
        <mxCell id="49WQ3xkFsMrKM3J29gn0-129" value="&lt;div&gt;0&lt;/div&gt;" style="text;html=1;align=center;verticalAlign=middle;resizable=0;points=[];autosize=1;strokeColor=none;fillColor=none;" parent="1" vertex="1">
          <mxGeometry x="1153" y="669" width="30" height="30" as="geometry" />
        </mxCell>
        <mxCell id="49WQ3xkFsMrKM3J29gn0-130" value="&lt;div&gt;1&lt;/div&gt;" style="text;html=1;align=center;verticalAlign=middle;resizable=0;points=[];autosize=1;strokeColor=none;fillColor=none;" parent="1" vertex="1">
          <mxGeometry x="1151" y="745" width="30" height="30" as="geometry" />
        </mxCell>
        <mxCell id="49WQ3xkFsMrKM3J29gn0-132" value="" style="endArrow=none;html=1;rounded=0;jumpSize=1;endSize=1;startSize=1;strokeWidth=1;fontSize=1;" parent="1" edge="1">
          <mxGeometry width="50" height="50" relative="1" as="geometry">
            <mxPoint x="1428" y="693" as="sourcePoint" />
            <mxPoint x="1448" y="673" as="targetPoint" />
          </mxGeometry>
        </mxCell>
        <mxCell id="49WQ3xkFsMrKM3J29gn0-133" value="5" style="text;html=1;align=center;verticalAlign=middle;resizable=0;points=[];autosize=1;strokeColor=none;fillColor=none;fontSize=9;" parent="1" vertex="1">
          <mxGeometry x="1417" y="660" width="40" height="20" as="geometry" />
        </mxCell>
        <mxCell id="49WQ3xkFsMrKM3J29gn0-134" value="" style="endArrow=classic;html=1;rounded=0;entryX=0.133;entryY=0.997;entryDx=0;entryDy=0;entryPerimeter=0;" parent="1" edge="1">
          <mxGeometry width="50" height="50" relative="1" as="geometry">
            <mxPoint x="843" y="798.83" as="sourcePoint" />
            <mxPoint x="901.1799999999998" y="798.9340000000001" as="targetPoint" />
          </mxGeometry>
        </mxCell>
        <mxCell id="49WQ3xkFsMrKM3J29gn0-135" value="" style="endArrow=classic;html=1;rounded=0;entryX=0.133;entryY=0.997;entryDx=0;entryDy=0;entryPerimeter=0;" parent="1" edge="1">
          <mxGeometry width="50" height="50" relative="1" as="geometry">
            <mxPoint x="880" y="779" as="sourcePoint" />
            <mxPoint x="901.1799999999998" y="779.104" as="targetPoint" />
          </mxGeometry>
        </mxCell>
        <mxCell id="49WQ3xkFsMrKM3J29gn0-136" value="" style="endArrow=classic;html=1;rounded=0;entryX=0.133;entryY=0.997;entryDx=0;entryDy=0;entryPerimeter=0;" parent="1" edge="1">
          <mxGeometry width="50" height="50" relative="1" as="geometry">
            <mxPoint x="800" y="759.45" as="sourcePoint" />
            <mxPoint x="821.1799999999998" y="759.5540000000001" as="targetPoint" />
          </mxGeometry>
        </mxCell>
        <mxCell id="49WQ3xkFsMrKM3J29gn0-137" value="" style="endArrow=classic;html=1;rounded=0;entryX=0.133;entryY=0.997;entryDx=0;entryDy=0;entryPerimeter=0;" parent="1" edge="1">
          <mxGeometry width="50" height="50" relative="1" as="geometry">
            <mxPoint x="760" y="789" as="sourcePoint" />
            <mxPoint x="771.1799999999998" y="789.104" as="targetPoint" />
          </mxGeometry>
        </mxCell>
        <mxCell id="49WQ3xkFsMrKM3J29gn0-138" value="" style="endArrow=classic;html=1;rounded=0;entryX=0.133;entryY=0.997;entryDx=0;entryDy=0;entryPerimeter=0;" parent="1" edge="1">
          <mxGeometry width="50" height="50" relative="1" as="geometry">
            <mxPoint x="760" y="809" as="sourcePoint" />
            <mxPoint x="771.1799999999998" y="809.004" as="targetPoint" />
          </mxGeometry>
        </mxCell>
        <mxCell id="49WQ3xkFsMrKM3J29gn0-139" value="" style="endArrow=classic;html=1;rounded=0;entryX=0.133;entryY=0.997;entryDx=0;entryDy=0;entryPerimeter=0;" parent="1" edge="1">
          <mxGeometry width="50" height="50" relative="1" as="geometry">
            <mxPoint x="659" y="798.96" as="sourcePoint" />
            <mxPoint x="670.1799999999998" y="798.964" as="targetPoint" />
          </mxGeometry>
        </mxCell>
        <mxCell id="49WQ3xkFsMrKM3J29gn0-140" value="" style="endArrow=classic;html=1;rounded=0;entryX=0.133;entryY=0.997;entryDx=0;entryDy=0;entryPerimeter=0;" parent="1" edge="1">
          <mxGeometry width="50" height="50" relative="1" as="geometry">
            <mxPoint x="659" y="818.96" as="sourcePoint" />
            <mxPoint x="670.1799999999998" y="818.964" as="targetPoint" />
          </mxGeometry>
        </mxCell>
        <mxCell id="49WQ3xkFsMrKM3J29gn0-142" value="" style="endArrow=classic;html=1;rounded=0;entryX=0.133;entryY=0.997;entryDx=0;entryDy=0;entryPerimeter=0;" parent="1" edge="1">
          <mxGeometry width="50" height="50" relative="1" as="geometry">
            <mxPoint x="1607" y="719.83" as="sourcePoint" />
            <mxPoint x="1618.1799999999998" y="719.8340000000001" as="targetPoint" />
          </mxGeometry>
        </mxCell>
        <mxCell id="49WQ3xkFsMrKM3J29gn0-143" value="" style="endArrow=classic;html=1;rounded=0;entryX=0.133;entryY=0.997;entryDx=0;entryDy=0;entryPerimeter=0;" parent="1" edge="1">
          <mxGeometry width="50" height="50" relative="1" as="geometry">
            <mxPoint x="1607" y="760" as="sourcePoint" />
            <mxPoint x="1618.1799999999998" y="760.004" as="targetPoint" />
          </mxGeometry>
        </mxCell>
        <mxCell id="49WQ3xkFsMrKM3J29gn0-144" value="" style="endArrow=classic;html=1;rounded=0;entryX=0.133;entryY=0.997;entryDx=0;entryDy=0;entryPerimeter=0;" parent="1" edge="1">
          <mxGeometry width="50" height="50" relative="1" as="geometry">
            <mxPoint x="809" y="878.83" as="sourcePoint" />
            <mxPoint x="820.1799999999998" y="878.8340000000001" as="targetPoint" />
          </mxGeometry>
        </mxCell>
        <mxCell id="49WQ3xkFsMrKM3J29gn0-145" value="" style="endArrow=classic;html=1;rounded=0;entryX=0.133;entryY=0.997;entryDx=0;entryDy=0;entryPerimeter=0;" parent="1" edge="1">
          <mxGeometry width="50" height="50" relative="1" as="geometry">
            <mxPoint x="890" y="859" as="sourcePoint" />
            <mxPoint x="901.1799999999998" y="859.004" as="targetPoint" />
          </mxGeometry>
        </mxCell>
        <mxCell id="49WQ3xkFsMrKM3J29gn0-146" value="" style="endArrow=classic;html=1;rounded=0;entryX=0.133;entryY=0.997;entryDx=0;entryDy=0;entryPerimeter=0;" parent="1" edge="1">
          <mxGeometry width="50" height="50" relative="1" as="geometry">
            <mxPoint x="890" y="839" as="sourcePoint" />
            <mxPoint x="901.1799999999998" y="839.004" as="targetPoint" />
          </mxGeometry>
        </mxCell>
        <mxCell id="49WQ3xkFsMrKM3J29gn0-149" value="" style="rounded=0;whiteSpace=wrap;html=1;direction=south;" parent="1" vertex="1">
          <mxGeometry x="1195.5" y="841" width="50" height="61" as="geometry" />
        </mxCell>
        <mxCell id="49WQ3xkFsMrKM3J29gn0-151" value="" style="rounded=0;whiteSpace=wrap;html=1;direction=south;" parent="1" vertex="1">
          <mxGeometry x="1035" y="841" width="50" height="61" as="geometry" />
        </mxCell>
        <mxCell id="49WQ3xkFsMrKM3J29gn0-154" value="" style="endArrow=none;html=1;rounded=0;" parent="1" edge="1">
          <mxGeometry width="50" height="50" relative="1" as="geometry">
            <mxPoint x="1260" y="780" as="sourcePoint" />
            <mxPoint x="1260" y="760" as="targetPoint" />
          </mxGeometry>
        </mxCell>
        <mxCell id="49WQ3xkFsMrKM3J29gn0-157" value="" style="verticalLabelPosition=bottom;verticalAlign=top;html=1;shape=mxgraph.basic.arc;startAngle=0.561415134288199;endAngle=0.9379219212558072;rotation=90;direction=south;" parent="1" vertex="1">
          <mxGeometry x="1245.5" y="776.5" width="20" height="25" as="geometry" />
        </mxCell>
        <mxCell id="49WQ3xkFsMrKM3J29gn0-159" value="" style="endArrow=none;html=1;rounded=0;entryX=0.307;entryY=0.1;entryDx=0;entryDy=0;entryPerimeter=0;exitX=0.579;exitY=0;exitDx=0;exitDy=0;exitPerimeter=0;" parent="1" source="49WQ3xkFsMrKM3J29gn0-149" target="49WQ3xkFsMrKM3J29gn0-157" edge="1">
          <mxGeometry width="50" height="50" relative="1" as="geometry">
            <mxPoint x="1260" y="870" as="sourcePoint" />
            <mxPoint x="1220" y="800" as="targetPoint" />
            <Array as="points">
              <mxPoint x="1260" y="876" />
            </Array>
          </mxGeometry>
        </mxCell>
        <mxCell id="49WQ3xkFsMrKM3J29gn0-163" value="" style="endArrow=none;html=1;rounded=0;" parent="1" edge="1">
          <mxGeometry width="50" height="50" relative="1" as="geometry">
            <mxPoint x="980" y="910" as="sourcePoint" />
            <mxPoint x="1720" y="880" as="targetPoint" />
            <Array as="points">
              <mxPoint x="1720" y="910" />
            </Array>
          </mxGeometry>
        </mxCell>
        <mxCell id="49WQ3xkFsMrKM3J29gn0-164" value="" style="endArrow=none;html=1;rounded=0;" parent="1" edge="1">
          <mxGeometry width="50" height="50" relative="1" as="geometry">
            <mxPoint x="980" y="910" as="sourcePoint" />
            <mxPoint x="1720" y="880" as="targetPoint" />
            <Array as="points">
              <mxPoint x="1720" y="910" />
            </Array>
          </mxGeometry>
        </mxCell>
        <mxCell id="49WQ3xkFsMrKM3J29gn0-165" value="" style="endArrow=none;html=1;rounded=0;entryX=0.803;entryY=0.997;entryDx=0;entryDy=0;entryPerimeter=0;" parent="1" target="49WQ3xkFsMrKM3J29gn0-149" edge="1">
          <mxGeometry width="50" height="50" relative="1" as="geometry">
            <mxPoint x="1180" y="910" as="sourcePoint" />
            <mxPoint x="1160" y="760" as="targetPoint" />
            <Array as="points">
              <mxPoint x="1140" y="910" />
              <mxPoint x="1140" y="890" />
            </Array>
          </mxGeometry>
        </mxCell>
        <mxCell id="49WQ3xkFsMrKM3J29gn0-166" value="" style="endArrow=classic;html=1;rounded=0;entryX=0.133;entryY=0.997;entryDx=0;entryDy=0;entryPerimeter=0;" parent="1" edge="1">
          <mxGeometry width="50" height="50" relative="1" as="geometry">
            <mxPoint x="1184" y="890" as="sourcePoint" />
            <mxPoint x="1195.1799999999998" y="890.004" as="targetPoint" />
          </mxGeometry>
        </mxCell>
        <mxCell id="49WQ3xkFsMrKM3J29gn0-167" value="" style="endArrow=none;html=1;rounded=0;" parent="1" edge="1">
          <mxGeometry width="50" height="50" relative="1" as="geometry">
            <mxPoint x="1021" y="910" as="sourcePoint" />
            <mxPoint x="1032" y="890" as="targetPoint" />
            <Array as="points">
              <mxPoint x="981" y="910" />
              <mxPoint x="981" y="900" />
              <mxPoint x="981" y="890" />
            </Array>
          </mxGeometry>
        </mxCell>
        <mxCell id="49WQ3xkFsMrKM3J29gn0-168" value="" style="endArrow=classic;html=1;rounded=0;entryX=0.133;entryY=0.997;entryDx=0;entryDy=0;entryPerimeter=0;" parent="1" edge="1">
          <mxGeometry width="50" height="50" relative="1" as="geometry">
            <mxPoint x="1024" y="890" as="sourcePoint" />
            <mxPoint x="1035.1799999999998" y="890.004" as="targetPoint" />
          </mxGeometry>
        </mxCell>
        <mxCell id="49WQ3xkFsMrKM3J29gn0-169" value="" style="endArrow=none;html=1;rounded=0;jumpSize=1;endSize=1;startSize=1;strokeWidth=1;fontSize=1;" parent="1" edge="1">
          <mxGeometry width="50" height="50" relative="1" as="geometry">
            <mxPoint x="990" y="902" as="sourcePoint" />
            <mxPoint x="1010" y="882" as="targetPoint" />
          </mxGeometry>
        </mxCell>
        <mxCell id="49WQ3xkFsMrKM3J29gn0-170" value="5" style="text;html=1;align=center;verticalAlign=middle;resizable=0;points=[];autosize=1;strokeColor=none;fillColor=none;fontSize=9;" parent="1" vertex="1">
          <mxGeometry x="978" y="869" width="40" height="20" as="geometry" />
        </mxCell>
        <mxCell id="49WQ3xkFsMrKM3J29gn0-171" value="5" style="text;html=1;align=center;verticalAlign=middle;resizable=0;points=[];autosize=1;strokeColor=none;fillColor=none;fontSize=9;" parent="1" vertex="1">
          <mxGeometry x="1137" y="869" width="40" height="20" as="geometry" />
        </mxCell>
        <mxCell id="49WQ3xkFsMrKM3J29gn0-172" value="" style="endArrow=none;html=1;rounded=0;jumpSize=1;endSize=1;startSize=1;strokeWidth=1;fontSize=1;" parent="1" edge="1">
          <mxGeometry width="50" height="50" relative="1" as="geometry">
            <mxPoint x="1149" y="902" as="sourcePoint" />
            <mxPoint x="1169" y="882" as="targetPoint" />
          </mxGeometry>
        </mxCell>
        <mxCell id="49WQ3xkFsMrKM3J29gn0-175" value="" style="endArrow=classic;html=1;rounded=0;entryX=0.133;entryY=0.997;entryDx=0;entryDy=0;entryPerimeter=0;" parent="1" edge="1">
          <mxGeometry width="50" height="50" relative="1" as="geometry">
            <mxPoint x="1140" y="855" as="sourcePoint" />
            <mxPoint x="1195.4999999999998" y="855.004" as="targetPoint" />
          </mxGeometry>
        </mxCell>
        <mxCell id="49WQ3xkFsMrKM3J29gn0-176" value="" style="endArrow=classic;html=1;rounded=0;entryX=0.133;entryY=0.997;entryDx=0;entryDy=0;entryPerimeter=0;" parent="1" edge="1">
          <mxGeometry width="50" height="50" relative="1" as="geometry">
            <mxPoint x="980" y="855" as="sourcePoint" />
            <mxPoint x="1034.9999999999998" y="854.8340000000001" as="targetPoint" />
          </mxGeometry>
        </mxCell>
        <mxCell id="49WQ3xkFsMrKM3J29gn0-183" value="" style="verticalLabelPosition=bottom;verticalAlign=top;html=1;shape=mxgraph.basic.arc;startAngle=0.561415134288199;endAngle=0.939735807053342;rotation=90;direction=south;" parent="1" vertex="1">
          <mxGeometry x="1165" y="778" width="20" height="25" as="geometry" />
        </mxCell>
        <mxCell id="49WQ3xkFsMrKM3J29gn0-185" value="" style="endArrow=classic;html=1;rounded=0;exitX=0.307;exitY=0.954;exitDx=0;exitDy=0;exitPerimeter=0;" parent="1" source="49WQ3xkFsMrKM3J29gn0-183" edge="1">
          <mxGeometry width="50" height="50" relative="1" as="geometry">
            <mxPoint x="1180" y="780" as="sourcePoint" />
            <mxPoint x="1180" y="764" as="targetPoint" />
            <Array as="points">
              <mxPoint x="1180" y="774" />
            </Array>
          </mxGeometry>
        </mxCell>
        <mxCell id="49WQ3xkFsMrKM3J29gn0-186" value="" style="endArrow=none;html=1;rounded=0;entryX=0.278;entryY=0.028;entryDx=0;entryDy=0;entryPerimeter=0;" parent="1" edge="1">
          <mxGeometry width="50" height="50" relative="1" as="geometry">
            <mxPoint x="960" y="849" as="sourcePoint" />
            <mxPoint x="1180.0000000000002" y="799.4999999999999" as="targetPoint" />
            <Array as="points">
              <mxPoint x="960" y="800" />
            </Array>
          </mxGeometry>
        </mxCell>
        <mxCell id="49WQ3xkFsMrKM3J29gn0-187" value="" style="endArrow=none;html=1;rounded=0;exitX=1;exitY=0.5;exitDx=0;exitDy=0;exitPerimeter=0;" parent="1" source="49WQ3xkFsMrKM3J29gn0-51" edge="1">
          <mxGeometry width="50" height="50" relative="1" as="geometry">
            <mxPoint x="1010" y="850" as="sourcePoint" />
            <mxPoint x="960" y="849" as="targetPoint" />
          </mxGeometry>
        </mxCell>
        <mxCell id="49WQ3xkFsMrKM3J29gn0-189" value="" style="endArrow=none;html=1;rounded=0;" parent="1" edge="1">
          <mxGeometry width="50" height="50" relative="1" as="geometry">
            <mxPoint x="1099.82" y="779" as="sourcePoint" />
            <mxPoint x="1100" y="760" as="targetPoint" />
          </mxGeometry>
        </mxCell>
        <mxCell id="49WQ3xkFsMrKM3J29gn0-190" value="" style="verticalLabelPosition=bottom;verticalAlign=top;html=1;shape=mxgraph.basic.arc;startAngle=0.561415134288199;endAngle=0.9379219212558072;rotation=90;direction=south;" parent="1" vertex="1">
          <mxGeometry x="1077.98" y="781.84" width="34.68" height="25" as="geometry" />
        </mxCell>
        <mxCell id="49WQ3xkFsMrKM3J29gn0-191" value="" style="endArrow=none;html=1;rounded=0;exitX=0.579;exitY=0;exitDx=0;exitDy=0;exitPerimeter=0;" parent="1" edge="1">
          <mxGeometry width="50" height="50" relative="1" as="geometry">
            <mxPoint x="1085.82" y="876" as="sourcePoint" />
            <mxPoint x="1100" y="810" as="targetPoint" />
            <Array as="points">
              <mxPoint x="1099.82" y="876" />
            </Array>
          </mxGeometry>
        </mxCell>
        <mxCell id="49WQ3xkFsMrKM3J29gn0-192" value="5&#39;d1" style="text;html=1;align=center;verticalAlign=middle;resizable=0;points=[];autosize=1;strokeColor=none;fillColor=none;fontSize=9;" parent="1" vertex="1">
          <mxGeometry x="1119" y="835" width="40" height="25" as="geometry" />
        </mxCell>
        <mxCell id="49WQ3xkFsMrKM3J29gn0-193" value="5&#39;d1" style="text;html=1;align=center;verticalAlign=middle;resizable=0;points=[];autosize=1;strokeColor=none;fillColor=none;fontSize=9;" parent="1" vertex="1">
          <mxGeometry x="960" y="832" width="40" height="25" as="geometry" />
        </mxCell>
        <mxCell id="49WQ3xkFsMrKM3J29gn0-194" value="+" style="text;html=1;align=center;verticalAlign=middle;resizable=0;points=[];autosize=1;strokeColor=none;fillColor=none;fontSize=9;" parent="1" vertex="1">
          <mxGeometry x="1047.5" y="860.5" width="25" height="25" as="geometry" />
        </mxCell>
        <mxCell id="49WQ3xkFsMrKM3J29gn0-195" value="-" style="text;html=1;align=center;verticalAlign=middle;resizable=0;points=[];autosize=1;strokeColor=none;fillColor=none;fontSize=9;" parent="1" vertex="1">
          <mxGeometry x="1208" y="859" width="25" height="25" as="geometry" />
        </mxCell>
        <mxCell id="49WQ3xkFsMrKM3J29gn0-196" value="Mux" style="text;html=1;align=center;verticalAlign=middle;resizable=0;points=[];autosize=1;strokeColor=none;fillColor=none;fontSize=9;" parent="1" vertex="1">
          <mxGeometry x="1168" y="707.5" width="40" height="25" as="geometry" />
        </mxCell>
        <mxCell id="49WQ3xkFsMrKM3J29gn0-197" value="Mux" style="text;html=1;align=center;verticalAlign=middle;resizable=0;points=[];autosize=1;strokeColor=none;fillColor=none;fontSize=9;" parent="1" vertex="1">
          <mxGeometry x="1328" y="705" width="40" height="25" as="geometry" />
        </mxCell>
        <mxCell id="49WQ3xkFsMrKM3J29gn0-198" value="Mux" style="text;html=1;align=center;verticalAlign=middle;resizable=0;points=[];autosize=1;strokeColor=none;fillColor=none;fontSize=9;" parent="1" vertex="1">
          <mxGeometry x="1488" y="705" width="40" height="25" as="geometry" />
        </mxCell>
        <mxCell id="49WQ3xkFsMrKM3J29gn0-199" value="D_FF" style="text;html=1;align=center;verticalAlign=middle;resizable=0;points=[];autosize=1;strokeColor=none;fillColor=none;fontSize=9;" parent="1" vertex="1">
          <mxGeometry x="1626" y="726" width="45" height="25" as="geometry" />
        </mxCell>
      </root>
    </mxGraphModel>
  </diagram>
</mxfile>
